<!--?xml version="1.0" standalone="no"?-->              <svg id="sw-js-blob-svg" viewBox="0 0 100 100" xmlns="http://www.w3.org/2000/svg" version="1.1">                    <defs>                         <linearGradient id="sw-gradient" x1="0" x2="1" y1="1" y2="0">                            <stop id="stop1" stop-color="rgba(173.436, 195.184, 219.397, 1)" offset="0%"></stop>                            <stop id="stop2" stop-color="rgba(149.26, 144.982, 210.29, 1)" offset="100%"></stop>                        </linearGradient>                    </defs>                <path fill="url(#sw-gradient)" d="M16.6,-23.4C24,-21,34.4,-20.7,39.4,-16.1C44.4,-11.5,44.1,-2.6,39.8,3.5C35.6,9.7,27.3,13.1,22,19C16.8,24.9,14.5,33.2,9.1,38.2C3.6,43.1,-5,44.6,-12.4,42.4C-19.9,40.2,-26.3,34.3,-28.4,27.2C-30.4,20.1,-28.1,11.9,-30.2,3.8C-32.3,-4.4,-38.7,-12.5,-38.7,-19.8C-38.7,-27.1,-32.3,-33.7,-24.7,-36C-17.2,-38.4,-8.6,-36.6,-2,-33.5C4.6,-30.3,9.1,-25.8,16.6,-23.4Z" width="100%" height="100%" transform="translate(50 50)" stroke-width="0" style="transition: 0.3s;"></path>              </svg>