<!--?xml version="1.0" standalone="no"?-->
              <svg id="sw-js-blob-svg" viewBox="0 0 100 100" xmlns="http://www.w3.org/2000/svg" version="1.1">
                    <defs> 
                        <linearGradient id="sw-gradient" x1="0" x2="1" y1="1" y2="0">
                            <stop id="stop1" stop-color="rgba(94.45, 55, 248, 1)" offset="0%"></stop>
                            <stop id="stop2" stop-color="rgba(31, 173.112, 251, 1)" offset="100%"></stop>
                        </linearGradient>
                    </defs>
                <path fill="url(#sw-gradient)" d="M26.5,-29.7C34.6,-24.9,41.4,-16.7,42,-8.2C42.6,0.3,36.9,9.2,31.4,17.7C26,26.2,20.8,34.5,13.2,37.9C5.7,41.4,-4.2,40,-11.9,35.9C-19.7,31.7,-25.3,24.8,-28,17.4C-30.7,10.1,-30.6,2.4,-30.4,-6.5C-30.3,-15.4,-30,-25.5,-25,-30.8C-19.9,-36.2,-9.9,-36.8,-0.4,-36.4C9.2,-36,18.5,-34.5,26.5,-29.7Z" width="100%" height="100%" transform="translate(50 50)" stroke-width="0" style="transition: 0.3s;"></path>
              </svg>